<?xml version="1.0" encoding="UTF-8"?>
<svg id="icon-floor-buffer" xmlns="http://www.w3.org/2000/svg" version="1.1" viewBox="0 0 64 64">
  <g id="icon-buffer-equip">
    <path d="M58,20.3h-1.7v-7.6l6.2-6.2s-1.8-1.8-1.7-1.7c-2.2,2.2-3.4,3.4-6.9,6.9v9.5h-3.4v-10.2c0-.5.2-.9.5-1.2l6.7-6.7s-1.8-1.8-1.7-1.7l-6.7,6.7c-.8.8-1.2,1.8-1.2,2.9v9.6c-.8.2-1.4.7-2,1.2l-4.7,4.7h-10.1v-10.9c0-2.5-2-4.5-4.5-4.5h-14.3c-2.5,0-4.5,2-4.5,4.5v21.2h-3c-2.5,0-4.6,2-4.6,4.6v8.4h38.2v-6.8h4.7c1.3,4,5.1,6.8,9.5,6.8s10-5.2,10-9v-15.4c0-2.8-2.3-5-5-5ZM53,47.4c-4.2,0-7.6-3.4-7.6-7.6s3.4-7.6,7.6-7.6,7.6,3.4,7.6,7.6-3.4,7.6-7.6,7.6ZM60.6,34.9c-1.6-2.5-4.4-4.1-7.6-4.1-5,0-9,4-9,9s0,.5,0,.7h-6.3c-.3-1.5-1.8-2.8-3.5-2.8s-4,0-3.9,0v-8.8h12.1l5.4-5.4c.5-.5,1.2-.8,2-.8h8.2c1.5,0,2.6,1.2,2.6,2.6v9.6ZM36.4,47.4H3v-6c0-1.2,1-2.2,2.2-2.2,8,0,30.5,0,29.1,0,1.2,0,2.2,1,2.2,2.2v6ZM10.6,20.2h18.4v17.5H10.6v-17.5ZM12.6,13.5h14.3c1.1,0,2.1.9,2.1,2.1v3.9H10.6v-3.9c0-1.1.9-2.1,2.1-2.1Z" fill="#4c4c4c" stroke-width="0"/>
    <path d="M53,36.4c-1.9,0-3.4,1.6-3.4,3.4s1.5,3.4,3.4,3.4,3.4-1.5,3.4-3.4-1.5-3.4-3.4-3.4Z" fill="#4c4c4c" stroke-width="0"/>
    <rect x="9.7" y="19.8" width=".4" height="18.6" fill="#4c4c4c" stroke-width="0"/>
    <rect x="13.6" y="19.8" width=".4" height="18.6" fill="#4c4c4c" stroke-width="0"/>
    <rect x="17.6" y="19.8" width=".4" height="18.6" fill="#4c4c4c" stroke-width="0"/>
    <rect x="21.5" y="19.8" width=".4" height="18.6" fill="#4c4c4c" stroke-width="0"/>
    <rect x="25.5" y="19.8" width=".4" height="18.6" fill="#4c4c4c" stroke-width="0"/>
    <rect x="29.5" y="19.8" width=".4" height="18.6" fill="#4c4c4c" stroke-width="0"/>
  </g>
  <path id="icon-buffer-floorOnly" d="M.6,51.7v11.7h62.4v-11.7H.6ZM60.6,54.1v6.9h-18.2v-6.9h18.2ZM40.9,54.1v6.9h-18.2v-6.9h18.2ZM21.3,54.1v6.9H3v-6.9h18.2Z" fill="#4c4c4c" stroke-width="0"/>
</svg>