<?xml version="1.0" encoding="UTF-8"?>
<svg id="blueprint-wrapper" xmlns="http://www.w3.org/2000/svg" version="1.1" viewBox="0 0 64 64">
  <polygon id="paper-outer" points="1.6 10.1 51.1 10.1 61.8 29.2 61.8 61 1.6 61 1.6 10.1" fill="#fff" stroke="#3f3f3f" stroke-linecap="round" stroke-linejoin="round" stroke-width="2"/>
  <rect id="paper-inner" x="9.1" y="16.4" width="45.2" height="38.3" fill="none" stroke="#3f3f3f" stroke-linecap="round" stroke-linejoin="round" stroke-width="2"/>
  <g id="design-right">
    <polyline points="27.8 45.9 27.8 48.3 30.3 48.3" fill="none" stroke="#3f3f3f" stroke-linecap="round" stroke-linejoin="round" stroke-width="2"/>
    <line x1="32.8" y1="48.3" x2="44.6" y2="48.3" fill="none" stroke="#3f3f3f" stroke-dasharray="0 0 6.7 4.2" stroke-linecap="round" stroke-linejoin="round" stroke-width="2"/>
    <polyline points="45.8 48.3 48.2 48.3 48.2 45.9" fill="none" stroke="#3f3f3f" stroke-linecap="round" stroke-linejoin="round" stroke-width="2"/>
    <line x1="48.2" y1="43" x2="48.2" y2="36.7" fill="none" stroke="#3f3f3f" stroke-dasharray="0 0 7.9 4.9" stroke-linecap="round" stroke-linejoin="round" stroke-width="2"/>
    <polyline points="48.2 35.2 48.2 32.8 45.8 32.8" fill="none" stroke="#3f3f3f" stroke-linecap="round" stroke-linejoin="round" stroke-width="2"/>
    <polyline points="41.4 32.8 39 32.8 39 30.4" fill="none" stroke="#3f3f3f" stroke-linecap="round" stroke-linejoin="round" stroke-width="2"/>
    <polyline points="39 25.6 39 23.2 36.6 23.2" fill="none" stroke="#3f3f3f" stroke-linecap="round" stroke-linejoin="round" stroke-width="2"/>
    <line x1="34.8" y1="23.2" x2="31.1" y2="23.2" fill="none" stroke="#3f3f3f" stroke-dasharray="0 0 4.7 2.9" stroke-linecap="round" stroke-linejoin="round" stroke-width="2"/>
    <polyline points="30.3 23.2 27.8 23.2 27.8 25.6" fill="none" stroke="#3f3f3f" stroke-linecap="round" stroke-linejoin="round" stroke-width="2"/>
    <line x1="27.8" y1="28.9" x2="27.8" y2="44.3" fill="none" stroke="#3f3f3f" stroke-dasharray="0 0 8.7 5.4" stroke-linecap="round" stroke-linejoin="round" stroke-width="2"/>
  </g>
  <g id="design-topleft">
    <g>
      <polyline points="27.8 25.6 27.8 23.2 25.4 23.2" fill="none" stroke="#3f3f3f" stroke-linecap="round" stroke-linejoin="round" stroke-width="2"/>
      <line x1="23.1" y1="23.2" x2="18.1" y2="23.2" fill="none" stroke="#3f3f3f" stroke-dasharray="0 0 6.2 3.9" stroke-linecap="round" stroke-linejoin="round" stroke-width="2"/>
      <polyline points="17 23.2 14.5 23.2 14.5 25.6" fill="none" stroke="#3f3f3f" stroke-linecap="round" stroke-linejoin="round" stroke-width="2"/>
      <polyline points="14.5 28.3 14.5 30.7 17 30.7" fill="none" stroke="#3f3f3f" stroke-linecap="round" stroke-linejoin="round" stroke-width="2"/>
      <line x1="19.3" y1="30.7" x2="24.3" y2="30.7" fill="none" stroke="#3f3f3f" stroke-dasharray="0 0 6.2 3.9" stroke-linecap="round" stroke-linejoin="round" stroke-width="2"/>
      <polyline points="25.4 30.7 27.8 30.7 27.8 28.3" fill="none" stroke="#3f3f3f" stroke-linecap="round" stroke-linejoin="round" stroke-width="2"/>
    </g>
  </g>
  <g id="design-bottom-left">
    <polyline points="27.8 45.9 27.8 48.3 25.4 48.3" fill="none" stroke="#3f3f3f" stroke-linecap="round" stroke-linejoin="round" stroke-width="2"/>
    <line x1="23.1" y1="48.3" x2="18.1" y2="48.3" fill="none" stroke="#3f3f3f" stroke-dasharray="0 0 6.2 3.9" stroke-linecap="round" stroke-linejoin="round" stroke-width="2"/>
    <polyline points="17 48.3 14.5 48.3 14.5 45.9" fill="none" stroke="#3f3f3f" stroke-linecap="round" stroke-linejoin="round" stroke-width="2"/>
    <line x1="14.5" y1="42.4" x2="14.5" y2="34.9" fill="none" stroke="#3f3f3f" stroke-dasharray="0 0 9.4 5.9" stroke-linecap="round" stroke-linejoin="round" stroke-width="2"/>
    <polyline points="14.5 33.1 14.5 30.7 17 30.7" fill="none" stroke="#3f3f3f" stroke-linecap="round" stroke-linejoin="round" stroke-width="2"/>
    <line x1="19.3" y1="30.7" x2="24.3" y2="30.7" fill="none" stroke="#3f3f3f" stroke-dasharray="0 0 6.2 3.9" stroke-linecap="round" stroke-linejoin="round" stroke-width="2"/>
    <polyline points="25.4 30.7 27.8 30.7 27.8 33.1" fill="none" stroke="#3f3f3f" stroke-linecap="round" stroke-linejoin="round" stroke-width="2"/>
    <line x1="27.8" y1="36.7" x2="27.8" y2="44.1" fill="none" stroke="#3f3f3f" stroke-dasharray="0 0 9.4 5.9" stroke-linecap="round" stroke-linejoin="round" stroke-width="2"/>
  </g>
  <path id="fold-right" d="M62,13.8c0-1.9-.4-3.9-1.4-5.5-1.4-2.4-4.1-5.1-9.5-5.1h-5.9v48.4h5.9c7.4.4,10.9,4.1,10.9,9.2h0s0-47.1,0-47.1Z" fill="#fff" stroke="#3f3f3f" stroke-linecap="round" stroke-linejoin="round" stroke-width="2"/>
</svg>