<?xml version="1.0" encoding="UTF-8"?>
<svg id="icon-carpet-custom" xmlns="http://www.w3.org/2000/svg" version="1.1" viewBox="0 0 64 64">
  <path d="M39.7,33.5c-.5,2.1-.3,4.5.5,6.5.8,2,2.1,3.8,2.6,5.9.3,1.2.1,2.8,1,3.8,1,1.2,2.6.5,3.7-.4,2-1.8,3.7-3.9,5.6-5.9,2.8-3,5.1-5.4,4.4-9.8-.6-3.7-2.3-7.6-5-10.3-1-1-2.5-2.1-4-1.5" fill="#fff" stroke="#3f3f3f" stroke-linecap="round" stroke-linejoin="round" stroke-width="1.5"/>
  <path d="M52,27.8c-.9-1.8-2.5-2.7-5-1.2-1.3.8-2.2,2.2-2.8,3.7-1.6,3.8-1.5,8.3.3,12.1.2.5.6,1.1,1.1,1.2.5.2,1.1-.1,1.5-.4,2.7-1.6,4.7-4.3,5.5-7.3.5-1.9.5-5.8-.7-8.2Z" fill="#fff" stroke="#3f3f3f" stroke-linecap="round" stroke-linejoin="round" stroke-width="1.5"/>
  <path d="M49.6,31.3c.2.1.4.4.5.6.5,1.3,0,2.9-.6,4.1-.6,1.1-2.8,3.7-3.6,1.3-.5-1.4,0-2.9.7-4.1.4-.6.8-1.2,1.4-1.7.5-.5,1.2-.6,1.7-.2Z" fill="#fff" stroke="#3f3f3f" stroke-linecap="round" stroke-linejoin="round" stroke-width="1.5"/>
  <path d="M35.3,39.4c2.8,3.5,3.1,8.4,2.5,12.9,0,.5-.1,1.1,0,1.6.4.9,1.6,1.2,2.6,1.2,2.1,0,4.2-1,5.6-2.6" fill="none" stroke="#3f3f3f" stroke-linecap="round" stroke-linejoin="round" stroke-width="1.5"/>
  <path d="M49.9,3.1c.3,4.9.5,10-1.7,14.3-1.6,3.2-4.1,5.8-6.5,8.5-1.4,1.6-2.7,3.2-3.9,5-1.2,1.7-1.8,4.2-3.7,5.4-1.9,1.2-3.1-1.2-3.6-2.7-1.6-4.5-4.2-6.8-8.5-8.9-6.1-2.9-12.5-5.6-19.2-5.9" fill="#fff" stroke="#3f3f3f" stroke-linecap="round" stroke-linejoin="round" stroke-width="1.5"/>
  <path d="M2.9,15c2.7-.6,5.6-.5,8.3.1,6.1,1.4,11.1,5.6,17.1,7.5,6.3,2,13.3.2,17-5.5,2.5-3.9,2.6-10.4.7-14.6" fill="#fff" stroke="#3f3f3f" stroke-linecap="round" stroke-linejoin="round" stroke-width="1.5"/>
  <path d="M16.8,2.8c-.2,4.1-.1,8.8,2.4,12.3,2.5,3.4,7.2,4.8,11.3,3.9,3.7-.7,7.1-2.9,9.4-5.9,2.2-2.9,3.9-7.3,1.7-10.6" fill="#fff" stroke="#3f3f3f" stroke-linecap="round" stroke-linejoin="round" stroke-width="1.5"/>
  <path d="M24.7,2.8c-.5,2.3-1,5,0,7.3,1.7,4.3,7.8,3.8,9-.6.5-2,.8-5.3-.8-6.9" fill="#fff" stroke="#3f3f3f" stroke-linecap="round" stroke-linejoin="round" stroke-width="1.5"/>
  <path d="M2.8,24.2c6.8,1.8,13.3,4.4,19.5,7.7,3.2,1.7,6.5,3.7,9,6.4,2.3,2.5,4.6,6.6,3,10-1.6,3.5-5.1,2.3-7.6.5-3.4-2.4-12.7-10.3-16.6-4.9-1,1.4-.9,3.2-1.7,4.6-1,1.7-2.9,2.2-4.7,1.7-.3,0-.7-.2-1-.4" fill="#fff" stroke="#3f3f3f" stroke-linecap="round" stroke-linejoin="round" stroke-width="1.5"/>
  <path d="M2.9,29.9c8.3,1,16.4,3.5,23.8,7.4,1.7.9,4.5,2.8,3.9,5.2-.7,2.6-6.2-.2-7.5-.9-2.7-1.3-5.5-3.1-8.6-3.6-3.7-.6-5.6,1.7-8.7,3.1-.9.4-2.1.5-3.1.2" fill="#fff" stroke="#3f3f3f" stroke-linecap="round" stroke-linejoin="round" stroke-width="1.5"/>
  <path d="M2.9,56.8c1,.4,2,.7,3,.8,1.9.2,4-.2,5.4-1.5,1.2-1.2,1.7-2.9,2.9-4.2,2.6-2.7,7-1.8,10.3,0,3.2,1.7,6,3.9,9.3,5.4,3.3,1.5,7.2,2.1,10.4.5,3.3-1.7,4.9-5.4,6.8-8.6,1.9-3.2,5-6.3,8.7-5.9.8,0,1.6.4,2.3.8" fill="none" stroke="#3f3f3f" stroke-linecap="round" stroke-linejoin="round" stroke-width="1.5"/>
  <path d="M13,61c1-3,3.3-5,5-5,3,0,7.3,2.9,8.5,5.7" fill="#fff" stroke="#3f3f3f" stroke-linecap="round" stroke-linejoin="round" stroke-width="1.5"/>
  <path d="M50.2,61.7c0-4.1,2.5-10.4,7.4-10,1.5.1,3,.6,4.3,1.2" fill="#fff" stroke="#3f3f3f" stroke-linecap="round" stroke-linejoin="round" stroke-width="1.5"/>
  <path d="M56.1,4.3c0,3.9-3.7,7-4.2,10.9-.3,2.4.7,4.9,2.2,6.8,1.6,1.9,3.6,3.3,5.8,4.6" fill="#fff" stroke="#3f3f3f" stroke-linecap="round" stroke-linejoin="round" stroke-width="1.5"/>
  <path d="M59.6,7.3c-1.1,2.2-2.7,4.4-3.5,6.8-.3.9-.4,2-.2,2.9.5,1.5,1.8,2.4,3,3.3" fill="#fff" stroke="#3f3f3f" stroke-linecap="round" stroke-linejoin="round" stroke-width="1.5"/>
  <rect x="2.8" y="2.5" width="59.2" height="59.2" fill="none" stroke="#3f3f3f" stroke-linecap="round" stroke-linejoin="round" stroke-width="1.5"/>
</svg>