<?xml version="1.0" encoding="UTF-8"?>
<svg id="rectangle-rounded" xmlns="http://www.w3.org/2000/svg" version="1.1" viewBox="0 0 64 64">
  <path id="rect-round-stroke" d="M52.6.8H10.6C5.6,1.4,1.8,4.8,1.1,9.8v13.4h4.4c0-3,0-3.6,0-8.6.3-5.4,3.5-8.6,8.9-9.3h34.4c4.8.6,8,3.4,8.8,8.3v35.6c-.8,4.8-3.9,7.8-8.8,8.2H15.3c-5,0-9-2.8-9.8-7.9,0-5.9,0-6.8,0-10H1.1v13.7c1,5.1,4.3,8.1,9.4,8.6q21.2,0,42.4,0c4.9-.5,8.5-4.2,9.1-9V10.1c-.8-5.2-4.3-8.5-9.4-9.2Z" fill="#000" stroke-width="0"/>
  <path id="arow-right-inside-rounded" d="M53.5,29.9l-16.1-15.9c-.5-.5-1.2-.6-2-.3-.8.3-1.2.9-1.2,1.8v10.8H-8.1c-.5,0-1,.2-1.4.6s-.6.8-.6,1.4v6.4c0,.5.2,1,.6,1.4s.8.6,1.4.6h42.3v10.8c0,.9.4,1.4,1.2,1.8.8.3,1.5.2,2.2-.5l15.9-15.7c.3-.4.5-.9.5-1.4s-.2-1-.5-1.4Z" fill="#000" stroke-width="0"/>
</svg>