<?xml version="1.0" encoding="UTF-8"?>
<svg id="logo-dma-floors-svg" xmlns="http://www.w3.org/2000/svg" version="1.1" viewBox="0 0 508.4 285.9">
  <g>
    <rect x="4" y="4" width="500.4" height="277.9" fill="#7c303f" stroke-width="0"/>
    <path d="M500.4,8v269.9H8V8h492.4M508.4,0H0v285.9h508.4V0h0Z" fill="#7c303f" stroke-width="0"/>
  </g>
  <g>
    <line x1="480.4" y1="74.7" x2="51.1" y2="16" fill="#fff" stroke-width="0"/>
    <path d="M479.2,75.2s1.2,0,1.1,0L54.2,16.5c-.3,0-4.3-.6-4.2-.7.3-.6,4.2,0,4.5.1l426.2,57.6c.3,0,0,1,0,1.3,0,.3-1.2.4-1.5.4Z" fill="#fff" stroke-width="0"/>
  </g>
  <path d="M58.9,18.6" fill="none" stroke="#fff" stroke-miterlimit="10" stroke-width="13.1"/>
  <path d="M329.8,102.8" fill="none" stroke="#fff" stroke-miterlimit="10" stroke-width="9.8"/>
  <path d="M45.3,18.1" fill="none" stroke="#fff" stroke-miterlimit="10" stroke-width="9.8"/>
  <path d="M335.3,104.7" fill="none" stroke="#7c303f" stroke-miterlimit="10" stroke-width="1.6"/>
  <path d="M56.9,21.1" fill="none" stroke="#7c303f" stroke-miterlimit="10" stroke-width="1.6"/>
  <path d="M488.2,100.3" fill="none" stroke="#7c303f" stroke-miterlimit="10" stroke-width="9.8"/>
  <path d="M465.1,96.9" fill="none" stroke="#7c303f" stroke-miterlimit="10" stroke-width="9.8"/>
  <g>
    <polygon points="12.9 272.8 495.4 272.8 495.3 195.1 12.9 195.1 12.9 272.8" fill="#7c303f" stroke-width="0"/>
    <g>
      <rect x="24.7" y="203.1" width="176.3" height="61.7" fill="#fff" stroke-width="0"/>
      <path d="M35.6,257.7v-47.6h18.6c8.3,0,14.3,2.5,18.4,7.2,4,4.7,6,10.2,6,16.3s-2,13-6.5,17.5c-4.3,4.4-9.8,6.6-16.9,6.6h-19.6ZM50.4,247h4c2.3,0,4.5-1.1,6-3.6,1.8-2.2,2.8-5.5,2.8-9.7s-.7-6.4-2.3-8.8c-1.5-2.5-3.8-3.9-6.5-3.9h-4v26" fill="#7c303f" stroke-width="0"/>
      <polyline points="137.7 210.1 137.7 257.7 123.8 257.7 123.8 223.7 114.8 257.7 105.2 257.7 95.9 223.7 95.9 257.7 84.9 257.7 84.9 210.1 104.2 210.1 111.3 235.3 118.1 210.1 137.7 210.1" fill="#7c303f" stroke-width="0"/>
      <path d="M172.9,257.7l-2.8-9.4h-13.1l-2.8,9.4h-12.1l14.8-47.6h15.8l15.1,47.6h-15.1ZM159.8,237.8h7.5l-3.8-13.3-3.8,13.3" fill="#7c303f" stroke-width="0"/>
      <polyline points="245.6 239.9 230 239.9 230 257.6 215.4 257.6 215.4 210.3 250.6 210.3 250.6 221.3 230 221.3 230 229.1 245.6 229.1 245.6 239.9" fill="#fff" stroke-width="0"/>
      <polyline points="289.1 246 289.1 257.6 255.1 257.6 255.1 210.3 270 210.3 270 246 289.1 246" fill="#fff" stroke-width="0"/>
      <path d="M315.2,258.4c-6.8,0-12.3-2.2-16.6-6.6-4.3-4.4-6.5-10.2-6.5-17.7s2-13,6.3-17.7c4-4.7,9.8-6.9,17.1-6.9s12.3,2.2,16.6,6.6c4,4.2,6.3,10,6.3,17.4s-2.3,13.6-6.5,18c-4.3,4.7-9.8,6.9-16.6,6.9ZM315.2,247.6c2.5,0,4.3-1.1,5.5-3.3,1-1.9,1.5-6.1,1.5-11.6,0-8.3-2.3-12.5-6.8-12.5s-7.3,4.7-7.3,14.1,2.3,13.3,7,13.3" fill="#fff" stroke-width="0"/>
      <path d="M365.6,258.4c-6.8,0-12.3-2.2-16.6-6.6-4.3-4.4-6.5-10.2-6.5-17.7s2-13,6.3-17.7c4-4.7,9.8-6.9,17.1-6.9s12.1,2.2,16.4,6.6c4.3,4.2,6.5,10,6.5,17.4s-2.3,13.6-6.5,18c-4.3,4.7-9.8,6.9-16.6,6.9ZM365.6,247.6c2.5,0,4.3-1.1,5.3-3.3,1.3-1.9,1.8-6.1,1.8-11.6,0-8.3-2.3-12.5-6.8-12.5s-7.3,4.7-7.3,14.1,2.3,13.3,7,13.3" fill="#fff" stroke-width="0"/>
      <path d="M438,257.6h-16.6l-7.3-18h-4.5v18h-14.9v-47.3h25.4c5.5,0,9.8,1.1,13.1,3.9,3,2.5,4.5,5.8,4.5,10s-.5,5.3-1.8,7.2c-1,2.2-3.5,4.1-6.8,5.5l8.8,20.8ZM409.6,229.4h6.5c1.8,0,3.3-.3,4.3-1.1,1.3-.8,1.8-1.9,1.8-3.3,0-3.1-1.8-4.7-5.5-4.7h-7v9.1" fill="#fff" stroke-width="0"/>
      <path d="M440,244l13.8-2.5c1.3,3.9,4,5.8,8.8,5.8s5.8-1.1,5.8-3-.5-1.7-1.5-2.5c-.8-.6-2.3-.8-4.5-1.4-8.6-1.7-13.8-3.9-16.3-6.4-2.3-2.5-3.5-5.5-3.5-9.1s1.8-8,5-11.1c3.5-3,8.5-4.4,15.1-4.4,9.8,0,16.4,3.9,19.6,11.6l-12.3,3.6c-1.3-3-4-4.7-7.8-4.7s-4.8,1.1-4.8,3,.3,1.4,1,2c.8.5,2.3,1.1,4.3,1.4,5.8,1.4,9.8,2.2,12.3,3.3,2.5.8,4.5,2.5,6,4.7,1.8,2.2,2.5,5,2.5,8,0,4.7-2,8.6-6,11.6-4,3-9,4.4-15.6,4.4-11.8,0-19.1-4.7-21.9-14.4" fill="#fff" stroke-width="0"/>
    </g>
  </g>
  <path d="M37.2,16.1c-.6.4,307.7,88.6,307.7,88.6l73-15S37.8,15.6,37.2,16.1Z" fill="#fff" stroke-width="0"/>
  <path d="M14.1,16.4c-.3.2,74.2,141.7,74.2,141.7l85.8-17.8S14.4,16.2,14.1,16.4Z" fill="#fff" stroke-width="0"/>
  <path d="M9.6,14.5l.2,160.1,73-15.4L9.6,14.5Z" fill="#fff" stroke-width="0"/>
  <polygon points="13.7 25.9 75.5 155.2 14.1 167.6 13.7 25.9" fill="#7c303f" stroke-width="0"/>
  <polygon points="18.8 22.1 90.2 152.3 164.3 137.5 18.8 22.1" fill="#7c303f" stroke-width="0"/>
  <path d="M19,15.9c-.3.2,160,123.4,160,123.4l84.7-17.6S19.3,15.7,19,15.9Z" fill="#fff" stroke-width="0"/>
  <polygon points="28.5 21.4 178.5 134.5 252.5 119.5 28.5 21.4" fill="#7c303f" stroke-width="0"/>
  <path d="M26.9,16c-.5.2,242.2,104.6,242.2,104.6l70.8-14.7c0,0-312.5-90.2-313.1-89.9Z" fill="#fff" stroke-width="0"/>
  <polygon points="47.7 23.6 266.3 116.9 328.3 104.4 47.7 23.6" fill="#7c303f" stroke-width="0"/>
  <polygon points="71.2 24.3 340.7 101.9 405.1 88.8 71.2 24.3" fill="#7c303f" stroke-width="0"/>
  <path d="M45.2,16.2c-.4.3,377.8,72.4,377.8,72.4l56.9-11.8S46.1,15.5,45.2,16.2Z" fill="#fff" stroke-width="0"/>
  <polygon points="418.3 86 466.5 76.6 93.2 24 418.3 86" fill="#7c303f" stroke-width="0"/>
  <polygon points="82.5 168.8 9.4 185 9.4 182.5 82.9 166.6 82.5 168.8" fill="#fff" stroke-width="0"/>
  <polygon points="174.4 148.8 88.3 167.6 88.7 165.4 174.7 146.6 174.4 148.8" fill="#fff" stroke-width="0"/>
  <polygon points="263 129.7 179.1 147.8 179.4 145.6 263.4 127.5 263 129.7" fill="#fff" stroke-width="0"/>
  <polygon points="338.4 113.2 268.6 128.4 268.9 126.4 338.7 111.2 338.4 113.2" fill="#fff" stroke-width="0"/>
  <polygon points="416.1 96.4 344 112 344.3 110 416.4 94.4 416.1 96.4" fill="#fff" stroke-width="0"/>
  <polygon points="480.1 82.5 422.3 94.9 422.7 93 480.5 80.3 480.1 82.5" fill="#fff" stroke-width="0"/>
  <path d="M495.1,13.5v259.2H13.2V13.5h481.9M500,8.6H8.3v269h491.7V8.6h0Z" fill="#fff" stroke-width="0"/>
  <rect x="11" y="190.2" width="486.4" height="4.9" fill="#fff" stroke-width="0"/>
</svg>